<svg width="25" height="25" viewBox="0 0 25 25" fill="none" xmlns="http://www.w3.org/2000/svg">
<path d="M3.50088 19.9732H21.5009C21.6831 19.9727 21.8618 19.9224 22.0176 19.8279C22.1734 19.7333 22.3004 19.5981 22.3851 19.4367C22.4697 19.2753 22.5088 19.0939 22.498 18.912C22.4872 18.73 22.427 18.5545 22.3239 18.4042L13.3239 5.40425C12.9509 4.86525 12.0529 4.86525 11.6789 5.40425L2.67888 18.4042C2.5747 18.5542 2.51361 18.7298 2.50224 18.912C2.49088 19.0943 2.52966 19.2761 2.61439 19.4379C2.69912 19.5996 2.82655 19.735 2.98284 19.8294C3.13913 19.9238 3.3183 19.9735 3.50088 19.9732Z" fill="white"/>
</svg>
