<svg width="265" height="104" viewBox="0 0 265 104" xmlns="http://www.w3.org/2000/svg">
    <g clip-path="url(#clip0_8_19)">
        <path d="M0 0.0253906H265V103.954H0V0.0253906Z" fill="currentColor"/>
        <path d="M31.3008 32.793H39.8562V70.253H31.3008V32.793Z" fill="currentColor"/>
        <path d="M39.5378 32.793H50.717V39.4507H39.5378V32.793ZM39.5378 63.5973H50.717V70.255H39.5378V63.5973ZM39.5378 47.8113H50.717V53.585H39.5378V47.8113Z" fill="currentColor"/>
        <path d="M50.717 70.255C50.717 70.255 62.5703 70.6299 62.5703 59.197C62.5703 59.197 63.0872 49.8951 55.5833 49.8951C55.5833 49.8951 61.2771 49.4708 61.2771 42.7677C61.2771 36.0646 56.6191 32.793 50.719 32.793C44.8189 32.793 45.1294 36.1218 45.1294 36.1218L49.3216 39.4507H50.719C50.719 39.4507 53.3585 39.4507 53.3585 43.3479C53.3585 47.245 51.8058 47.8094 50.0468 47.8094C48.2878 47.8094 47.6136 50.6962 47.6136 50.6962L50.719 53.5831C50.719 53.5831 54.6517 53.5318 54.6517 58.7273C54.6517 63.9229 50.5106 63.5933 49.4768 63.5933C48.443 63.5933 48.7516 66.2631 48.7516 66.2631L50.717 70.255ZM78.3779 42.3237C64.0286 42.3237 64.0424 56.7166 64.0424 56.7166C64.0424 56.7166 63.0577 71.0364 78.3779 71.0364C78.3779 71.0364 91.1451 71.7685 91.1451 61.0755H84.5788C84.5788 61.0755 84.7969 65.1029 78.5961 65.1029C78.5961 65.1029 72.0297 65.5429 72.0297 58.5852H91.3633C91.3653 58.5852 93.48 42.3237 78.3779 42.3237ZM71.957 53.585C71.957 53.585 72.7589 47.8113 78.5234 47.8113C84.2879 47.8113 84.2132 53.585 84.2132 53.585H71.957ZM220.61 42.3237C206.26 42.3237 206.274 56.7166 206.274 56.7166C206.274 56.7166 205.289 71.0364 220.612 71.0364C220.612 71.0364 233.379 71.7685 233.379 61.0755H226.812C226.812 61.0755 227.03 65.1029 220.83 65.1029C220.83 65.1029 214.263 65.5429 214.263 58.5852H233.599C233.595 58.5852 235.71 42.3237 220.61 42.3237ZM214.189 53.585C214.189 53.585 214.99 47.8113 220.755 47.8113C226.518 47.8113 226.445 53.585 226.445 53.585H214.189ZM70.3513 34.9991H85.7462V39.6125H70.3513V34.9991ZM94.2819 32.793H101.868V70.2353H94.2819V32.793ZM119.305 51.1876H111.864V70.2353H119.305V51.1876Z" fill="currentColor"/>
        <path d="M111.768 51.1875C111.768 51.1875 111.768 48.3303 107.047 48.3303C102.67 48.3303 101.868 51.7736 101.868 55.0689C101.868 58.3642 101.357 47.8172 101.357 47.8172C101.357 47.8172 103.765 42.3237 110.186 42.3237C116.607 42.3237 119.305 46.9826 119.305 51.5585C119.305 56.1345 116.725 53.9244 116.725 53.9244L111.77 52.7444V51.1856L111.768 51.1875ZM150.697 42.7243H158.283V70.2353H150.697V42.7243ZM175.722 51.1875H168.281V70.2353H175.722V51.1875Z" fill="currentColor"/>
        <path d="M168.185 51.1875C168.185 51.1875 168.185 48.3303 163.464 48.3303C159.087 48.3303 158.285 51.7736 158.285 55.0689C158.285 58.3642 157.774 47.8172 157.774 47.8172C157.774 47.8172 160.182 42.3237 166.603 42.3237C173.022 42.3237 175.722 46.9826 175.722 51.5585C175.722 56.1345 173.141 53.9244 173.141 53.9244L168.185 52.7444V51.1875ZM148.157 70.2353C148.157 70.2353 146.746 69.5071 146.746 65.0594V49.017C146.746 49.017 147.644 42.3257 135.636 42.3257C123.629 42.3257 122.859 48.3678 122.794 51.9768H130.821C130.821 51.9768 130.5 47.2036 135.573 47.2036C135.573 47.2036 139.875 46.8602 139.875 51.1895C139.875 51.1895 139.875 54.0349 135.958 54.2934C132.041 54.5519 122.088 54.4888 122.088 62.6106C122.088 62.6106 121.831 71.1844 130.982 71.1844C130.982 71.1844 137.244 71.3126 139.875 67.4451V70.2353H148.157ZM139.81 61.772C139.81 61.772 139.168 65.8981 133.71 65.8981C133.71 65.8981 129.215 66.0934 129.215 62.2239C129.215 62.2239 128.83 59.2581 135.123 58.2912C137.627 58.0978 138.782 57.9242 139.81 56.7541V61.772ZM205.083 59.633H197.229C197.229 59.633 197.422 65.1818 192.284 65.1818C187.145 65.1818 185.789 59.6528 185.789 56.4818C185.789 53.3068 186.854 47.9534 192.381 47.9534C197.907 47.9534 197.713 52.7227 197.713 52.7227H204.598C204.598 52.7227 205.081 42.3257 192.479 42.3257C179.875 42.3257 178.519 52.5728 178.519 56.687C178.519 60.8012 180.651 71.1844 192.286 71.1844C203.92 71.1824 205.083 61.774 205.083 59.633Z" fill="currentColor"/>
    </g>
    <defs>
        <clipPath id="clip0_8_19">
            <rect width="265" height="103.976" fill="currentColor"/>
        </clipPath>
    </defs>
</svg>
