<svg width="265" height="79" viewBox="0 0 265 79" fill="none" xmlns="http://www.w3.org/2000/svg">
<g clip-path="url(#clip0_8_16)">
<path d="M254.003 78.9999C260.077 78.9999 265.001 74.0978 265.001 68.0505C265.001 62.0034 260.077 57.1011 254.003 57.1011C247.929 57.1011 243.006 62.0034 243.006 68.0505C243.006 74.0978 247.929 78.9999 254.003 78.9999Z" fill="white"/>
<path d="M243.005 38.2123H233.626C227.587 38.2123 224.355 42.7205 224.355 50.2334V77.3911H206.565V38.2123H199.019C192.981 38.2123 189.749 42.7205 189.749 50.2334V77.3911H171.959V23.7211H189.749V31.8792C192.661 25.546 196.649 23.7211 202.579 23.7211H224.358V31.8792C227.27 25.546 231.258 23.7211 237.188 23.7211H243.01V38.2123H243.005ZM168.076 54.7418H130.988C131.959 60.7537 135.731 64.1875 142.092 64.1875C146.834 64.1875 150.177 62.2547 151.257 58.8207L166.997 63.221C163.117 72.5588 153.521 78.2495 142.092 78.2495C122.794 78.2495 113.952 63.3291 113.952 50.5573C113.952 37.999 121.715 22.9706 141.013 22.9706C161.498 22.9706 168.29 38.2123 168.29 49.4829C168.293 51.9504 168.184 53.562 168.076 54.7418ZM150.825 44.3296C150.394 39.7133 147.051 35.4209 141.016 35.4209C135.408 35.4209 132.068 37.8884 130.988 44.3296H150.825ZM82.9059 77.3911H98.5377L118.052 23.7237H100.156L90.6688 54.9576L80.9646 23.7211H63.1746L82.9059 77.3911ZM10.027 77.3911H27.7083V38.2123H44.5276V77.3911H62.1007V23.7211H27.7083V20.3952C27.7083 16.7454 30.2952 14.4912 34.3924 14.4912H44.5276V0H31.4828C18.6522 0 10.027 7.8368 10.027 19.3208V23.7211H0V38.2123H10.027V77.3911Z" fill="white"/>
</g>
<defs>
<clipPath id="clip0_8_16">
<rect width="265" height="79" fill="white"/>
</clipPath>
</defs>
</svg>
