<svg width="265" height="67" viewBox="0 0 265 67" fill="none" xmlns="http://www.w3.org/2000/svg">
<g clip-path="url(#clip0_8_27)">
<path d="M255.064 57.0885H245.114V41.5414C245.114 37.8341 245.048 33.0616 239.939 33.0616C234.756 33.0616 233.963 37.1009 233.963 41.2715V57.0875H224.013V25.1163H233.565V29.4855H233.699C234.655 27.8547 236.036 26.5132 237.696 25.6037C239.356 24.6943 241.232 24.251 243.124 24.3211C253.209 24.3211 255.068 30.9395 255.068 39.5497L255.064 57.0885ZM212.786 20.7461C211.644 20.7463 210.527 20.4086 209.577 19.7757C208.628 19.1429 207.888 18.2432 207.45 17.1906C207.013 16.138 206.898 14.9796 207.121 13.862C207.344 12.7444 207.893 11.7178 208.701 10.912C209.508 10.1061 210.537 9.55723 211.657 9.33473C212.777 9.11223 213.938 9.22612 214.993 9.66197C216.049 10.0978 216.951 10.8361 217.585 11.7834C218.22 12.7307 218.559 13.8445 218.559 14.9839C218.559 15.7405 218.41 16.4897 218.12 17.1887C217.83 17.8877 217.404 18.5229 216.868 19.058C216.332 19.593 215.696 20.0175 214.995 20.3072C214.295 20.5968 213.544 20.746 212.786 20.7461ZM217.761 57.0885H207.8V25.1163H217.761V57.0885ZM260.025 0.00456315H202.8C201.501 -0.0100608 200.25 0.490392 199.321 1.39595C198.391 2.30151 197.86 3.53808 197.845 4.83395V62.1651C197.86 63.4616 198.39 64.699 199.32 65.6055C200.249 66.512 201.501 67.0134 202.8 66.9996H260.025C261.327 67.0159 262.582 66.5159 263.515 65.6094C264.448 64.703 264.982 63.4641 265 62.1651V4.82981C264.981 3.53138 264.447 2.2934 263.514 1.38786C262.581 0.482326 261.326 -0.0166982 260.025 0.000426627M170.762 32.833C165.787 32.833 162.802 36.1474 162.802 40.9768C162.802 45.8062 165.786 49.1236 170.762 49.1236C175.738 49.1236 178.73 45.8144 178.73 40.9768C178.73 36.1391 175.744 32.833 170.762 32.833ZM187.89 57.0699H178.73V52.83H178.594C177.445 54.3722 175.954 55.6288 174.238 56.502C172.522 57.3752 170.628 57.8413 168.702 57.8641C159.141 57.8641 152.843 50.9799 152.843 41.2446C152.843 32.3035 158.416 24.0936 167.578 24.0936C171.696 24.0936 175.542 25.2177 177.799 28.3335H177.929V9.90429H187.889L187.89 57.0699ZM140.067 37.3718C140.086 36.5664 139.941 35.7655 139.641 35.0176C139.341 34.2698 138.891 33.5905 138.32 33.021C137.749 32.4515 137.068 32.0037 136.318 31.7045C135.568 31.4054 134.766 31.2612 133.958 31.2808C132.22 31.1728 130.508 31.7509 129.193 32.8903C127.878 34.0297 127.064 35.6392 126.927 37.3718H140.067ZM148.496 51.5394C146.843 53.5399 144.764 55.1485 142.411 56.2486C140.057 57.3488 137.488 57.913 134.889 57.9003C124.939 57.9003 116.972 51.2736 116.972 41.0119C116.972 30.7503 124.938 24.1267 134.889 24.1267C144.19 24.1267 150.022 30.7451 150.022 41.0119V44.1247H126.927C127.214 45.89 128.132 47.4922 129.51 48.636C130.888 49.7798 132.634 50.3882 134.426 50.3491C135.842 50.3403 137.234 49.9783 138.474 49.2959C139.714 48.6136 140.764 47.6325 141.527 46.4422L148.496 51.5394ZM49.5796 25.1081H59.135V29.4773H59.2708C60.2252 27.8458 61.6058 26.5036 63.2652 25.594C64.9246 24.6844 66.8005 24.2416 68.6925 24.3128C78.7828 24.3128 80.6401 30.9364 80.6401 39.5414V57.074H70.6898V41.53C70.6898 37.8196 70.6214 33.0502 65.5074 33.0502C60.3353 33.0502 59.5372 37.0905 59.5372 41.2601V57.0699H49.5868L49.5796 25.1081ZM85.6858 9.90739H95.6361V38.1029L106.913 25.0905H119.113L106.053 39.892L118.838 57.0896H106.332L95.7688 41.286H95.6382V57.0875H85.6879L85.6858 9.90739ZM34.112 25.105H44.0623V57.0761H34.112V25.105ZM39.0872 9.21039C40.2288 9.21059 41.3447 9.54853 42.2938 10.1815C43.2429 10.8144 43.9825 11.7139 44.4193 12.7663C44.856 13.8186 44.9702 14.9765 44.7473 16.0936C44.5245 17.2107 43.9746 18.2368 43.1673 19.0421C42.36 19.8474 41.3315 20.3958 40.2118 20.6179C39.0922 20.8401 37.9316 20.726 36.877 20.29C35.8223 19.8541 34.9208 19.116 34.2866 18.1689C33.6524 17.2219 33.3139 16.1084 33.3139 14.9695C33.3139 14.2131 33.4632 13.4641 33.7534 12.7653C34.0435 12.0665 34.4688 11.4316 35.0049 10.8968C35.541 10.362 36.1775 9.93783 36.8779 9.64847C37.5783 9.35911 38.3291 9.21025 39.0872 9.21039ZM0 9.91463H10.3577V47.5569H29.5328V57.0937H0V9.91463Z" fill="white"/>
</g>
<defs>
<clipPath id="clip0_8_27">
<rect width="265" height="67" fill="white"/>
</clipPath>
</defs>
</svg>
