<svg width="265" height="54" viewBox="0 0 265 54" fill="none" xmlns="http://www.w3.org/2000/svg">
<g clip-path="url(#clip0_8_36)">
<path d="M0 5.73872H7.61587V45.6952H28.6936V52.7211H0V5.73872ZM36.2022 5.73872C38.7766 5.73872 40.9755 7.72313 40.9755 10.3511C40.9755 12.9792 38.8302 15.0708 36.2022 15.0708C33.5742 15.0708 31.4289 12.9792 31.4289 10.3511C31.4289 7.77677 33.5205 5.73872 36.2022 5.73872ZM32.4479 18.8788H39.742V52.7747H32.4479V18.8788ZM44.0862 18.8788H51.3803V23.5448C53.5256 19.9514 57.2263 17.967 62.1605 17.967C70.0982 17.967 75.0324 24.1348 75.0324 33.896V52.7211H67.7383V34.5932C67.7383 28.2645 64.9494 24.6711 59.9615 24.6711C54.4374 24.6711 51.4339 28.4254 51.4339 35.1832V52.7211H44.0862V18.8788ZM78.894 5.73872H86.188V35.4513L99.8108 18.8788H108.982L94.4475 35.8268L108.982 52.7211H99.8108L86.188 36.2022V52.7211H78.894V5.73872ZM111.878 10.2439H119.333V18.8788H128.022V24.9393H119.333V42.37C119.333 44.5689 120.674 45.9634 122.819 45.9634H127.7V52.7747H121.854C115.525 52.7747 111.932 49.0204 111.932 42.37L111.878 10.2439ZM131.722 18.8788H138.48V23.0621C140.304 19.8442 143.307 17.967 147.008 17.967C148.134 17.967 148.724 18.0206 149.582 18.2888V25.0465C149.099 24.9393 148.349 24.7784 146.847 24.7784C141.483 24.7784 138.534 29.2835 138.534 37.0067V52.6675H131.24V18.8788H131.722ZM166.691 17.967C174.736 17.967 183.478 22.794 183.478 36.5776V37.543H157.305C157.895 43.6035 161.381 46.9288 167.281 46.9288C171.518 46.9288 175.058 44.6762 175.862 41.5118H183.317C182.513 48.2696 175.433 53.6329 167.227 53.6329C156.715 53.6329 150.065 46.8215 150.065 35.7731C150.065 25.9583 156.447 17.967 166.691 17.967ZM175.648 31.5361C174.629 27.3528 171.303 24.7248 166.691 24.7248C162.239 24.7248 159.075 27.4064 157.842 31.5361H175.648ZM203.322 17.967C211.367 17.967 220.109 22.794 220.109 36.5776V37.543H193.936C194.526 43.6035 198.013 46.9288 203.912 46.9288C208.149 46.9288 211.689 44.6762 212.493 41.5118H219.895C219.144 48.2696 212.064 53.6329 203.859 53.6329C193.346 53.6329 186.696 46.8215 186.696 35.7731C186.696 25.9583 193.078 17.967 203.322 17.967ZM212.279 31.5361C211.26 27.3528 207.935 24.7248 203.269 24.7248C198.817 24.7248 195.653 27.4064 194.419 31.5361H212.279ZM221.879 17.8597H234.912L225.633 9.06395L230.729 3.86157L239.578 12.8719V0H247.248V12.8719L256.097 3.86157L261.192 9.06395L251.914 17.8597H264.946V25.1538H251.806L261.192 34.1641L256.097 39.2593L243.386 26.5483L230.675 39.2593L225.58 34.1641L234.912 25.1002H221.772V17.8597H221.879ZM239.632 35.505H247.301V52.7747H239.632V35.505Z" fill="white"/>
</g>
<defs>
<clipPath id="clip0_8_36">
<rect width="265" height="53.6329" fill="white"/>
</clipPath>
</defs>
</svg>
